<svg width="1024" height="80" viewBox="0 0 1024 80" fill="none" xmlns="http://www.w3.org/2000/svg">
<rect width="1024" height="80" fill="white"/>
<path d="M100 21.7178L116.149 55.8839H83.8516L100 21.7178Z" fill="#FECD2F"/>
<path fill-rule="evenodd" clip-rule="evenodd" d="M90.4602 51.7672H109.54L100 31.5835L90.4602 51.7672ZM80 54.1661L96.1486 20H103.851L120 54.1661L116.149 60H83.8514L80 54.1661Z" fill="url(#paint0_linear_113_4224)"/>
<path d="M131.36 53L141.32 30.05H141.56L151.52 53H146.48L140.12 36.86L143.27 34.7L135.65 53H131.36ZM138.17 45.02H144.8L146.33 48.68H136.82L138.17 45.02ZM154.049 29.33H158.249V53H154.049V29.33ZM166.804 53.63C165.624 53.63 164.634 53.27 163.834 52.55C163.034 51.81 162.614 50.86 162.574 49.7V39.89H166.774V48.14C166.814 48.72 166.964 49.19 167.224 49.55C167.484 49.89 167.924 50.06 168.544 50.06C169.164 50.06 169.694 49.85 170.134 49.43C170.594 49.01 170.944 48.44 171.184 47.72C171.444 46.98 171.574 46.15 171.574 45.23V39.89H175.774V53H171.964L171.634 50.6L171.694 50.87C171.394 51.41 171.014 51.89 170.554 52.31C170.094 52.73 169.544 53.05 168.904 53.27C168.284 53.51 167.584 53.63 166.804 53.63ZM183.874 39.89L184.264 43.49L184.174 42.95C184.554 42.17 185.074 41.51 185.734 40.97C186.394 40.41 187.044 39.98 187.684 39.68C188.344 39.38 188.844 39.23 189.184 39.23L188.974 43.43C187.994 43.31 187.154 43.47 186.454 43.91C185.754 44.35 185.214 44.93 184.834 45.65C184.454 46.37 184.264 47.11 184.264 47.87V53H180.094V39.89H183.874ZM197.479 53.36C196.259 53.36 195.149 53.12 194.149 52.64C193.169 52.14 192.389 51.38 191.809 50.36C191.229 49.34 190.939 48.04 190.939 46.46C190.939 44.98 191.239 43.7 191.839 42.62C192.439 41.54 193.229 40.71 194.209 40.13C195.189 39.53 196.229 39.23 197.329 39.23C198.629 39.23 199.609 39.45 200.269 39.89C200.949 40.31 201.509 40.78 201.949 41.3L201.769 41.81L202.159 39.89H206.059V53H201.859V50.15L202.189 51.05C202.149 51.05 202.029 51.17 201.829 51.41C201.629 51.63 201.329 51.9 200.929 52.22C200.549 52.52 200.069 52.78 199.489 53C198.929 53.24 198.259 53.36 197.479 53.36ZM198.679 49.94C199.179 49.94 199.629 49.87 200.029 49.73C200.429 49.57 200.779 49.35 201.079 49.07C201.379 48.77 201.639 48.4 201.859 47.96V44.75C201.699 44.31 201.459 43.94 201.139 43.64C200.819 43.32 200.439 43.08 199.999 42.92C199.559 42.74 199.069 42.65 198.529 42.65C197.929 42.65 197.369 42.81 196.849 43.13C196.349 43.43 195.949 43.85 195.649 44.39C195.349 44.93 195.199 45.55 195.199 46.25C195.199 46.95 195.359 47.58 195.679 48.14C195.999 48.7 196.419 49.14 196.939 49.46C197.479 49.78 198.059 49.94 198.679 49.94ZM216.927 31.31C219.107 31.31 220.817 31.76 222.057 32.66C223.317 33.54 223.947 34.92 223.947 36.8C223.947 37.94 223.687 38.93 223.167 39.77C222.647 40.61 221.917 41.27 220.977 41.75C220.057 42.23 218.967 42.5 217.707 42.56L217.287 41.06C218.747 41.1 220.057 41.36 221.217 41.84C222.377 42.32 223.297 42.99 223.977 43.85C224.657 44.71 224.997 45.73 224.997 46.91C224.997 47.99 224.797 48.92 224.397 49.7C223.997 50.46 223.457 51.09 222.777 51.59C222.097 52.07 221.327 52.43 220.467 52.67C219.607 52.89 218.717 53 217.797 53H211.347V31.31H216.927ZM217.527 40.82C218.727 40.82 219.597 40.49 220.137 39.83C220.677 39.15 220.947 38.33 220.947 37.37C220.947 36.23 220.597 35.4 219.897 34.88C219.197 34.36 218.257 34.1 217.077 34.1H214.257V40.82H217.527ZM217.647 50.3C218.447 50.3 219.177 50.18 219.837 49.94C220.517 49.7 221.047 49.33 221.427 48.83C221.827 48.33 222.027 47.7 222.027 46.94C222.027 46.1 221.797 45.44 221.337 44.96C220.897 44.48 220.327 44.14 219.627 43.94C218.927 43.72 218.207 43.61 217.467 43.61H214.257V50.3H217.647ZM228.121 46.67C228.121 45.43 228.411 44.31 228.991 43.31C229.591 42.31 230.411 41.52 231.451 40.94C232.491 40.36 233.671 40.07 234.991 40.07C236.351 40.07 237.541 40.36 238.561 40.94C239.581 41.52 240.371 42.31 240.931 43.31C241.491 44.31 241.771 45.43 241.771 46.67C241.771 47.91 241.491 49.04 240.931 50.06C240.371 51.06 239.571 51.85 238.531 52.43C237.511 53.01 236.321 53.3 234.961 53.3C233.641 53.3 232.461 53.03 231.421 52.49C230.401 51.93 229.591 51.16 228.991 50.18C228.411 49.18 228.121 48.01 228.121 46.67ZM230.911 46.7C230.911 47.5 231.091 48.23 231.451 48.89C231.811 49.53 232.291 50.04 232.891 50.42C233.511 50.8 234.191 50.99 234.931 50.99C235.711 50.99 236.401 50.8 237.001 50.42C237.621 50.04 238.101 49.53 238.441 48.89C238.781 48.23 238.951 47.5 238.951 46.7C238.951 45.9 238.781 45.18 238.441 44.54C238.101 43.88 237.621 43.36 237.001 42.98C236.401 42.58 235.711 42.38 234.931 42.38C234.171 42.38 233.481 42.58 232.861 42.98C232.261 43.38 231.781 43.91 231.421 44.57C231.081 45.21 230.911 45.92 230.911 46.7ZM244.469 46.67C244.469 45.43 244.759 44.31 245.339 43.31C245.939 42.31 246.759 41.52 247.799 40.94C248.839 40.36 250.019 40.07 251.339 40.07C252.699 40.07 253.889 40.36 254.909 40.94C255.929 41.52 256.719 42.31 257.279 43.31C257.839 44.31 258.119 45.43 258.119 46.67C258.119 47.91 257.839 49.04 257.279 50.06C256.719 51.06 255.919 51.85 254.879 52.43C253.859 53.01 252.669 53.3 251.309 53.3C249.989 53.3 248.809 53.03 247.769 52.49C246.749 51.93 245.939 51.16 245.339 50.18C244.759 49.18 244.469 48.01 244.469 46.67ZM247.259 46.7C247.259 47.5 247.439 48.23 247.799 48.89C248.159 49.53 248.639 50.04 249.239 50.42C249.859 50.8 250.539 50.99 251.279 50.99C252.059 50.99 252.749 50.8 253.349 50.42C253.969 50.04 254.449 49.53 254.789 48.89C255.129 48.23 255.299 47.5 255.299 46.7C255.299 45.9 255.129 45.18 254.789 44.54C254.449 43.88 253.969 43.36 253.349 42.98C252.749 42.58 252.059 42.38 251.279 42.38C250.519 42.38 249.829 42.58 249.209 42.98C248.609 43.38 248.129 43.91 247.769 44.57C247.429 45.21 247.259 45.92 247.259 46.7ZM261.897 53V29.78H264.687V53H261.897ZM267.687 44.75L273.387 53H270.117L265.827 46.31L267.687 44.75ZM263.817 49.04L263.547 46.37L271.077 40.31L272.787 41.78L263.817 49.04ZM280.318 53.24C279.438 53.24 278.578 53.09 277.738 52.79C276.918 52.47 276.238 52 275.698 51.38L276.868 49.76C277.388 50.26 277.918 50.64 278.458 50.9C279.018 51.14 279.568 51.26 280.108 51.26C280.508 51.26 280.878 51.21 281.218 51.11C281.558 51.01 281.828 50.85 282.028 50.63C282.248 50.39 282.358 50.07 282.358 49.67C282.358 49.23 282.208 48.88 281.908 48.62C281.628 48.36 281.258 48.15 280.798 47.99C280.358 47.83 279.888 47.68 279.388 47.54C278.368 47.2 277.588 46.73 277.048 46.13C276.508 45.53 276.238 44.8 276.238 43.94C276.238 43.28 276.398 42.67 276.718 42.11C277.058 41.53 277.548 41.06 278.188 40.7C278.848 40.34 279.658 40.16 280.618 40.16C281.478 40.16 282.248 40.27 282.928 40.49C283.608 40.69 284.248 41.03 284.848 41.51L283.738 43.25C283.378 42.87 282.948 42.59 282.448 42.41C281.948 42.23 281.498 42.13 281.098 42.11C280.758 42.09 280.428 42.14 280.108 42.26C279.808 42.38 279.558 42.55 279.358 42.77C279.158 42.99 279.058 43.25 279.058 43.55C279.058 43.97 279.198 44.31 279.478 44.57C279.758 44.83 280.118 45.04 280.558 45.2C281.018 45.34 281.468 45.49 281.908 45.65C282.528 45.83 283.078 46.07 283.558 46.37C284.038 46.67 284.418 47.04 284.698 47.48C284.998 47.92 285.148 48.47 285.148 49.13C285.148 49.87 284.968 50.56 284.608 51.2C284.268 51.82 283.738 52.32 283.018 52.7C282.318 53.06 281.418 53.24 280.318 53.24Z" fill="black"/>
<path d="M354.688 40.416C354.688 39.328 354.933 38.352 355.424 37.488C355.915 36.6133 356.581 35.9307 357.424 35.44C358.277 34.9493 359.221 34.704 360.256 34.704C361.472 34.704 362.533 34.9973 363.44 35.584C364.347 36.1707 365.008 37.0027 365.424 38.08H363.68C363.371 37.408 362.923 36.8907 362.336 36.528C361.76 36.1653 361.067 35.984 360.256 35.984C359.477 35.984 358.779 36.1653 358.16 36.528C357.541 36.8907 357.056 37.408 356.704 38.08C356.352 38.7413 356.176 39.52 356.176 40.416C356.176 41.3013 356.352 42.08 356.704 42.752C357.056 43.4133 357.541 43.9253 358.16 44.288C358.779 44.6507 359.477 44.832 360.256 44.832C361.067 44.832 361.76 44.656 362.336 44.304C362.923 43.9413 363.371 43.424 363.68 42.752H365.424C365.008 43.8187 364.347 44.6453 363.44 45.232C362.533 45.808 361.472 46.096 360.256 46.096C359.221 46.096 358.277 45.856 357.424 45.376C356.581 44.8853 355.915 44.208 355.424 43.344C354.933 42.48 354.688 41.504 354.688 40.416ZM374.183 43.52H369.319L368.423 46H366.887L370.919 34.912H372.599L376.615 46H375.079L374.183 43.52ZM373.767 42.336L371.751 36.704L369.735 42.336H373.767ZM385.237 34.848V36.032H382.197V46H380.741V36.032H377.685V34.848H385.237ZM388.485 36.032V39.76H392.549V40.96H388.485V44.8H393.029V46H387.029V34.832H393.029V36.032H388.485ZM403.68 38.08C403.371 37.4293 402.923 36.928 402.336 36.576C401.749 36.2133 401.067 36.032 400.288 36.032C399.509 36.032 398.805 36.2133 398.176 36.576C397.557 36.928 397.067 37.44 396.704 38.112C396.352 38.7733 396.176 39.5413 396.176 40.416C396.176 41.2907 396.352 42.0587 396.704 42.72C397.067 43.3813 397.557 43.8933 398.176 44.256C398.805 44.608 399.509 44.784 400.288 44.784C401.376 44.784 402.272 44.4587 402.976 43.808C403.68 43.1573 404.091 42.2773 404.208 41.168H399.76V39.984H405.76V41.104C405.675 42.0213 405.387 42.864 404.896 43.632C404.405 44.3893 403.76 44.992 402.96 45.44C402.16 45.8773 401.269 46.096 400.288 46.096C399.253 46.096 398.309 45.856 397.456 45.376C396.603 44.8853 395.925 44.208 395.424 43.344C394.933 42.48 394.688 41.504 394.688 40.416C394.688 39.328 394.933 38.352 395.424 37.488C395.925 36.6133 396.603 35.936 397.456 35.456C398.309 34.9653 399.253 34.72 400.288 34.72C401.472 34.72 402.517 35.0133 403.424 35.6C404.341 36.1867 405.008 37.0133 405.424 38.08H403.68ZM412.741 46.112C411.706 46.112 410.762 45.872 409.909 45.392C409.056 44.9013 408.378 44.224 407.877 43.36C407.386 42.4853 407.141 41.504 407.141 40.416C407.141 39.328 407.386 38.352 407.877 37.488C408.378 36.6133 409.056 35.936 409.909 35.456C410.762 34.9653 411.706 34.72 412.741 34.72C413.786 34.72 414.736 34.9653 415.589 35.456C416.442 35.936 417.114 36.608 417.605 37.472C418.096 38.336 418.341 39.3173 418.341 40.416C418.341 41.5147 418.096 42.496 417.605 43.36C417.114 44.224 416.442 44.9013 415.589 45.392C414.736 45.872 413.786 46.112 412.741 46.112ZM412.741 44.848C413.52 44.848 414.218 44.6667 414.837 44.304C415.466 43.9413 415.957 43.424 416.309 42.752C416.672 42.08 416.853 41.3013 416.853 40.416C416.853 39.52 416.672 38.7413 416.309 38.08C415.957 37.408 415.472 36.8907 414.853 36.528C414.234 36.1653 413.53 35.984 412.741 35.984C411.952 35.984 411.248 36.1653 410.629 36.528C410.01 36.8907 409.52 37.408 409.157 38.08C408.805 38.7413 408.629 39.52 408.629 40.416C408.629 41.3013 408.805 42.08 409.157 42.752C409.52 43.424 410.01 43.9413 410.629 44.304C411.258 44.6667 411.962 44.848 412.741 44.848ZM426.135 46L423.479 41.44H421.719V46H420.263V34.848H423.863C424.706 34.848 425.415 34.992 425.991 35.28C426.578 35.568 427.015 35.9573 427.303 36.448C427.591 36.9387 427.735 37.4987 427.735 38.128C427.735 38.896 427.511 39.5733 427.063 40.16C426.626 40.7467 425.965 41.136 425.079 41.328L427.879 46H426.135ZM421.719 40.272H423.863C424.653 40.272 425.245 40.08 425.639 39.696C426.034 39.3013 426.231 38.7787 426.231 38.128C426.231 37.4667 426.034 36.9547 425.639 36.592C425.255 36.2293 424.663 36.048 423.863 36.048H421.719V40.272ZM431.454 34.848V46H429.998V34.848H431.454ZM440.527 43.52H435.663L434.767 46H433.231L437.263 34.912H438.943L442.959 46H441.423L440.527 43.52ZM440.111 42.336L438.095 36.704L436.079 42.336H440.111ZM448.252 46.112C447.516 46.112 446.855 45.984 446.268 45.728C445.692 45.4613 445.239 45.0987 444.908 44.64C444.578 44.1707 444.407 43.632 444.396 43.024H445.948C446.002 43.5467 446.215 43.9893 446.588 44.352C446.972 44.704 447.527 44.88 448.252 44.88C448.946 44.88 449.49 44.7093 449.884 44.368C450.29 44.016 450.492 43.568 450.492 43.024C450.492 42.5973 450.375 42.2507 450.14 41.984C449.906 41.7173 449.612 41.5147 449.26 41.376C448.908 41.2373 448.434 41.088 447.836 40.928C447.1 40.736 446.508 40.544 446.06 40.352C445.623 40.16 445.244 39.8613 444.924 39.456C444.615 39.04 444.46 38.4853 444.46 37.792C444.46 37.184 444.615 36.6453 444.924 36.176C445.234 35.7067 445.666 35.344 446.22 35.088C446.786 34.832 447.431 34.704 448.156 34.704C449.202 34.704 450.055 34.9653 450.716 35.488C451.388 36.0107 451.767 36.704 451.852 37.568H450.252C450.199 37.1413 449.975 36.768 449.58 36.448C449.186 36.1173 448.663 35.952 448.012 35.952C447.404 35.952 446.908 36.112 446.524 36.432C446.14 36.7413 445.948 37.1787 445.948 37.744C445.948 38.1493 446.06 38.48 446.284 38.736C446.519 38.992 446.802 39.1893 447.132 39.328C447.474 39.456 447.948 39.6053 448.556 39.776C449.292 39.9787 449.884 40.1813 450.332 40.384C450.78 40.576 451.164 40.88 451.484 41.296C451.804 41.7013 451.964 42.256 451.964 42.96C451.964 43.504 451.82 44.016 451.532 44.496C451.244 44.976 450.818 45.3653 450.252 45.664C449.687 45.9627 449.02 46.112 448.252 46.112Z" fill="black"/>
<path d="M502.536 34.848V36.032H497.688V39.792H501.624V40.976H497.688V46H496.232V34.848H502.536ZM510.887 43.52H506.023L505.127 46H503.59L507.623 34.912H509.303L513.319 46H511.783L510.887 43.52ZM510.471 42.336L508.455 36.704L506.439 42.336H510.471ZM524.292 34.848L520.084 46H518.404L514.196 34.848H515.748L519.252 44.464L522.756 34.848H524.292ZM530.944 46.112C529.91 46.112 528.966 45.872 528.112 45.392C527.259 44.9013 526.582 44.224 526.08 43.36C525.59 42.4853 525.344 41.504 525.344 40.416C525.344 39.328 525.59 38.352 526.08 37.488C526.582 36.6133 527.259 35.936 528.112 35.456C528.966 34.9653 529.91 34.72 530.944 34.72C531.99 34.72 532.939 34.9653 533.792 35.456C534.646 35.936 535.318 36.608 535.808 37.472C536.299 38.336 536.544 39.3173 536.544 40.416C536.544 41.5147 536.299 42.496 535.808 43.36C535.318 44.224 534.646 44.9013 533.792 45.392C532.939 45.872 531.99 46.112 530.944 46.112ZM530.944 44.848C531.723 44.848 532.422 44.6667 533.04 44.304C533.67 43.9413 534.16 43.424 534.512 42.752C534.875 42.08 535.056 41.3013 535.056 40.416C535.056 39.52 534.875 38.7413 534.512 38.08C534.16 37.408 533.675 36.8907 533.056 36.528C532.438 36.1653 531.734 35.984 530.944 35.984C530.155 35.984 529.451 36.1653 528.832 36.528C528.214 36.8907 527.723 37.408 527.36 38.08C527.008 38.7413 526.832 39.52 526.832 40.416C526.832 41.3013 527.008 42.08 527.36 42.752C527.723 43.424 528.214 43.9413 528.832 44.304C529.462 44.6667 530.166 44.848 530.944 44.848ZM544.338 46L541.682 41.44H539.922V46H538.466V34.848H542.066C542.909 34.848 543.618 34.992 544.194 35.28C544.781 35.568 545.218 35.9573 545.506 36.448C545.794 36.9387 545.938 37.4987 545.938 38.128C545.938 38.896 545.714 39.5733 545.266 40.16C544.829 40.7467 544.168 41.136 543.282 41.328L546.082 46H544.338ZM539.922 40.272H542.066C542.856 40.272 543.448 40.08 543.842 39.696C544.237 39.3013 544.434 38.7787 544.434 38.128C544.434 37.4667 544.237 36.9547 543.842 36.592C543.458 36.2293 542.866 36.048 542.066 36.048H539.922V40.272ZM549.657 34.848V46H548.201V34.848H549.657ZM559.002 34.848V36.032H555.962V46H554.506V36.032H551.45V34.848H559.002ZM565.851 46.112C564.816 46.112 563.872 45.872 563.019 45.392C562.165 44.9013 561.488 44.224 560.987 43.36C560.496 42.4853 560.251 41.504 560.251 40.416C560.251 39.328 560.496 38.352 560.987 37.488C561.488 36.6133 562.165 35.936 563.019 35.456C563.872 34.9653 564.816 34.72 565.851 34.72C566.896 34.72 567.845 34.9653 568.699 35.456C569.552 35.936 570.224 36.608 570.715 37.472C571.205 38.336 571.451 39.3173 571.451 40.416C571.451 41.5147 571.205 42.496 570.715 43.36C570.224 44.224 569.552 44.9013 568.699 45.392C567.845 45.872 566.896 46.112 565.851 46.112ZM565.851 44.848C566.629 44.848 567.328 44.6667 567.947 44.304C568.576 43.9413 569.067 43.424 569.419 42.752C569.781 42.08 569.963 41.3013 569.963 40.416C569.963 39.52 569.781 38.7413 569.419 38.08C569.067 37.408 568.581 36.8907 567.963 36.528C567.344 36.1653 566.64 35.984 565.851 35.984C565.061 35.984 564.357 36.1653 563.739 36.528C563.12 36.8907 562.629 37.408 562.267 38.08C561.915 38.7413 561.739 39.52 561.739 40.416C561.739 41.3013 561.915 42.08 562.267 42.752C562.629 43.424 563.12 43.9413 563.739 44.304C564.368 44.6667 565.072 44.848 565.851 44.848ZM576.909 46.112C576.173 46.112 575.511 45.984 574.925 45.728C574.349 45.4613 573.895 45.0987 573.565 44.64C573.234 44.1707 573.063 43.632 573.053 43.024H574.605C574.658 43.5467 574.871 43.9893 575.245 44.352C575.629 44.704 576.183 44.88 576.909 44.88C577.602 44.88 578.146 44.7093 578.541 44.368C578.946 44.016 579.149 43.568 579.149 43.024C579.149 42.5973 579.031 42.2507 578.797 41.984C578.562 41.7173 578.269 41.5147 577.917 41.376C577.565 41.2373 577.09 41.088 576.493 40.928C575.757 40.736 575.165 40.544 574.717 40.352C574.279 40.16 573.901 39.8613 573.581 39.456C573.271 39.04 573.117 38.4853 573.117 37.792C573.117 37.184 573.271 36.6453 573.581 36.176C573.89 35.7067 574.322 35.344 574.877 35.088C575.442 34.832 576.087 34.704 576.813 34.704C577.858 34.704 578.711 34.9653 579.373 35.488C580.045 36.0107 580.423 36.704 580.509 37.568H578.909C578.855 37.1413 578.631 36.768 578.237 36.448C577.842 36.1173 577.319 35.952 576.669 35.952C576.061 35.952 575.565 36.112 575.181 36.432C574.797 36.7413 574.605 37.1787 574.605 37.744C574.605 38.1493 574.717 38.48 574.941 38.736C575.175 38.992 575.458 39.1893 575.789 39.328C576.13 39.456 576.605 39.6053 577.213 39.776C577.949 39.9787 578.541 40.1813 578.989 40.384C579.437 40.576 579.821 40.88 580.141 41.296C580.461 41.7013 580.621 42.256 580.621 42.96C580.621 43.504 580.477 44.016 580.189 44.496C579.901 44.976 579.474 45.3653 578.909 45.664C578.343 45.9627 577.677 46.112 576.909 46.112Z" fill="black"/>
<path d="M636.544 34.928V46H635.088V37.744L631.408 46H630.384L626.688 37.728V46H625.232V34.928H626.8L630.896 44.08L634.992 34.928H636.544ZM640.469 34.848V46H639.013V34.848H640.469ZM651.719 46H650.263L644.407 37.12V46H642.951V34.832H644.407L650.263 43.696V34.832H651.719V46ZM662.793 34.848V46H661.337V40.944H655.657V46H654.201V34.848H655.657V39.744H661.337V34.848H662.793ZM671.871 43.52H667.007L666.111 46H664.575L668.607 34.912H670.287L674.303 46H672.767L671.871 43.52ZM671.455 42.336L669.439 36.704L667.423 42.336H671.455ZM681.782 36.032V39.76H685.846V40.96H681.782V44.8H686.326V46H680.326V34.832H686.326V36.032H681.782ZM692.065 46.112C691.329 46.112 690.668 45.984 690.081 45.728C689.505 45.4613 689.052 45.0987 688.721 44.64C688.39 44.1707 688.22 43.632 688.209 43.024H689.761C689.814 43.5467 690.028 43.9893 690.401 44.352C690.785 44.704 691.34 44.88 692.065 44.88C692.758 44.88 693.302 44.7093 693.697 44.368C694.102 44.016 694.305 43.568 694.305 43.024C694.305 42.5973 694.188 42.2507 693.953 41.984C693.718 41.7173 693.425 41.5147 693.073 41.376C692.721 41.2373 692.246 41.088 691.649 40.928C690.913 40.736 690.321 40.544 689.873 40.352C689.436 40.16 689.057 39.8613 688.737 39.456C688.428 39.04 688.273 38.4853 688.273 37.792C688.273 37.184 688.428 36.6453 688.737 36.176C689.046 35.7067 689.478 35.344 690.033 35.088C690.598 34.832 691.244 34.704 691.969 34.704C693.014 34.704 693.868 34.9653 694.529 35.488C695.201 36.0107 695.58 36.704 695.665 37.568H694.065C694.012 37.1413 693.788 36.768 693.393 36.448C692.998 36.1173 692.476 35.952 691.825 35.952C691.217 35.952 690.721 36.112 690.337 36.432C689.953 36.7413 689.761 37.1787 689.761 37.744C689.761 38.1493 689.873 38.48 690.097 38.736C690.332 38.992 690.614 39.1893 690.945 39.328C691.286 39.456 691.761 39.6053 692.369 39.776C693.105 39.9787 693.697 40.1813 694.145 40.384C694.593 40.576 694.977 40.88 695.297 41.296C695.617 41.7013 695.777 42.256 695.777 42.96C695.777 43.504 695.633 44.016 695.345 44.496C695.057 44.976 694.63 45.3653 694.065 45.664C693.5 45.9627 692.833 46.112 692.065 46.112ZM704.784 34.848V36.032H701.744V46H700.288V36.032H697.232V34.848H704.784ZM713.168 43.52H708.304L707.408 46H705.872L709.904 34.912H711.584L715.6 46H714.064L713.168 43.52ZM712.752 42.336L710.736 36.704L708.72 42.336H712.752ZM726.125 46H724.669L718.813 37.12V46H717.357V34.832H718.813L724.669 43.696V34.832H726.125V46ZM735.471 34.848V36.032H732.431V46H730.975V36.032H727.919V34.848H735.471ZM738.719 36.032V39.76H742.783V40.96H738.719V44.8H743.263V46H737.263V34.832H743.263V36.032H738.719Z" fill="black"/>
<g clip-path="url(#clip0_113_4224)">
<path d="M841.5 30.4998H838.333C838.333 27.0007 835.499 24.1665 832 24.1665C828.501 24.1665 825.666 27.0007 825.666 30.4998H822.5C820.758 30.4998 819.333 31.9248 819.333 33.6665V52.6665C819.333 54.4082 820.758 55.8332 822.5 55.8332H841.5C843.241 55.8332 844.666 54.4082 844.666 52.6665V33.6665C844.666 31.9248 843.241 30.4998 841.5 30.4998ZM832 27.3332C833.741 27.3332 835.166 28.7582 835.166 30.4998H828.833C828.833 28.7582 830.258 27.3332 832 27.3332ZM841.5 52.6665H822.5V33.6665H825.666V36.8332C825.666 37.704 826.379 38.4165 827.25 38.4165C828.121 38.4165 828.833 37.704 828.833 36.8332V33.6665H835.166V36.8332C835.166 37.704 835.879 38.4165 836.75 38.4165C837.621 38.4165 838.333 37.704 838.333 36.8332V33.6665H841.5V52.6665Z" fill="#002F52"/>
</g>
<path d="M928 24C919.168 24 912 31.168 912 40C912 48.832 919.168 56 928 56C936.832 56 944 48.832 944 40C944 31.168 936.832 24 928 24ZM920.112 50.048C920.8 48.608 924.992 47.2 928 47.2C931.008 47.2 935.216 48.608 935.888 50.048C933.712 51.776 930.976 52.8 928 52.8C925.024 52.8 922.288 51.776 920.112 50.048ZM938.176 47.728C935.888 44.944 930.336 44 928 44C925.664 44 920.112 44.944 917.824 47.728C916.192 45.584 915.2 42.912 915.2 40C915.2 32.944 920.944 27.2 928 27.2C935.056 27.2 940.8 32.944 940.8 40C940.8 42.912 939.808 45.584 938.176 47.728ZM928 30.4C924.896 30.4 922.4 32.896 922.4 36C922.4 39.104 924.896 41.6 928 41.6C931.104 41.6 933.6 39.104 933.6 36C933.6 32.896 931.104 30.4 928 30.4ZM928 38.4C926.672 38.4 925.6 37.328 925.6 36C925.6 34.672 926.672 33.6 928 33.6C929.328 33.6 930.4 34.672 930.4 36C930.4 37.328 929.328 38.4 928 38.4Z" fill="#002F52"/>
<defs>
<linearGradient id="paint0_linear_113_4224" x1="100" y1="20" x2="100" y2="60" gradientUnits="userSpaceOnUse">
<stop offset="0.677083" stop-color="#FD8325"/>
<stop offset="1" stop-color="#FC6621"/>
</linearGradient>
<clipPath id="clip0_113_4224">
<rect width="38" height="38" fill="white" transform="translate(813 21)"/>
</clipPath>
</defs>
</svg>
